
        <svg xmlns="http://www.w3.org/2000/svg" xmlns:xlink="http://www.w3.org/1999/xlink" version="1.1" width="3162.364696086595" 
        height="634.4759924579637" viewBox="0 0 3162.364696086595 634.4759924579637">
			
			<g transform="scale(8.118234804329726) translate(10, 10)">
				<defs id="SvgjsDefs1347"></defs><g id="SvgjsG1348" featureKey="symbolFeature-0" transform="matrix(0.7269303422333516,0,0,0.7269303422333516,-12.11574788089835,-7.2693034223335165)" fill="#ff0000"><path xmlns="http://www.w3.org/2000/svg" d="M16.667,43.33C16.667,69.104,37.559,90,63.333,90v-6.667c-22.093,0-40-17.91-40-40.003H16.667z"></path><path xmlns="http://www.w3.org/2000/svg" d="M63.333,16.667c-14.729,0-26.666,11.94-26.666,26.664C36.667,58.06,48.604,70,63.333,70v6.667  C44.922,76.667,30,61.741,30,43.33C30,24.922,44.922,10,63.333,10V16.667z"></path><path xmlns="http://www.w3.org/2000/svg" d="M63.333,43.333v20c-11.048,0-20-8.955-20-20.003c0-11.045,8.952-19.997,20-19.997c11.049,0,20,8.952,20,19.997  L63.333,43.333z"></path></g><g id="SvgjsG1349" featureKey="nameFeature-0" transform="matrix(1.666351408278743,0,0,1.666351408278743,63.118426556131595,-14.112195132803997)" fill="#111111"><path d="M2.9297 39.960937 l0 -27.891 l12.695 0 c5.7031 0 8.5547 2.4936 8.5547 7.4805 c0 3.3725 -2.2201 6.1654 -6.6602 8.3789 l8.8477 12.07 l-6.5234 0 l-8.4961 -12.168 l0 -2.3633 c4.9479 -0.84635 7.4219 -2.767 7.4219 -5.7617 c0 -2.0572 -1.1588 -3.0859 -3.4766 -3.0859 l-7.0898 0 l0 23.34 l-5.2734 0 z M48.8088125 12.07 l0 4.4531 l-13.984 0 l0 7.0313 l13.32 0 l0 4.6289 l-13.379 0 l0 7.3242 l14.316 0 l0 4.4922 l-19.395 0 l0 -27.93 l19.121 0 z M81.34740625 12.07 l-12.246 27.93 l-5.5664 0 l-11.719 -27.93 l6.1523 0 l8.6523 21.387 l8.6328 -21.387 l6.0938 0 z M85.097675 40 l-5.3125 0 l11.855 -27.93 l5.5664 0 l12.109 27.93 l-5.5664 0 l-3.1836 -7.6172 l-9.2773 0 l1.7773 -4.4922 l5.625 0 l-4.3945 -10.488 z M128.94490625 12.07 l0 4.4922 l-8.0078 0 l0 23.438 l-5.1758 0 l0 -23.438 l-8.0078 0 l0 -4.4922 l21.191 0 z M151.87521875 12.07 l0 4.4531 l-13.984 0 l0 7.0313 l13.32 0 l0 4.6289 l-13.379 0 l0 7.3242 l14.316 0 l0 4.4922 l-19.395 0 l0 -27.93 l19.121 0 z M162.9883125 12.07 l0 27.93 l-5.1758 0 l0 -27.93 l5.1758 0 z M182.6368125 12.07 l-11.914 13.027 l13.164 14.902 l-7.168 0 l-10.801 -13.047 l0 -3.3594 l10.391 -11.523 l6.3281 0 z"></path></g>
			</g>
		</svg>

